<?xml version="1.0" standalone="no"?><!DOCTYPE svg PUBLIC "-//W3C//DTD SVG 1.1//EN"
        "http://www.w3.org/Graphics/SVG/1.1/DTD/svg11.dtd">
<svg t="1597721921052" class="icon" viewBox="0 0 1024 1024" version="1.1" xmlns="http://www.w3.org/2000/svg" p-id="8899"
     width="128" height="128">
    <defs>
        <style type="text/css"></style>
    </defs>
    <path d="M342.235429 646.253714c13.531429-14.738286-3.108571-16.384-12.982858-16.64a1233.005714 1233.005714 0 0 0-80.713142-0.182857c-23.186286 0.914286-34.230857-6.838857-33.755429-31.817143 1.060571-57.965714 0.768-115.931429 0.109714-173.897143-0.256-20.882286 7.277714-30.354286 29.037715-29.513142 27.867429 1.097143 55.881143 0.292571 83.821714 0.073142 5.961143-0.073143 13.312 1.462857 16.932571-4.754285 4.022857-6.948571-2.230857-11.52-6.4-15.652572a10296.173714 10296.173714 0 0 0-87.881143-87.771428c-15.652571-15.36-31.085714-13.275429-46.043428 1.755428-41.654857 41.801143-83.236571 83.638857-125.220572 125.074286-18.688 18.432-16.822857 34.925714 0.219429 53.650286 37.485714 41.252571 37.595429 51.821714-0.402286 93.476571-16.566857 18.139429-17.590857 33.499429-0.073143 50.834286 41.947429 41.472 83.529143 83.309714 125.293715 125.001143 6.692571 6.656 14.08 12.251429 27.062857 12.544 3.181714-1.243429 10.24-1.974857 14.262857-5.851429 32.731429-31.597714 66.011429-62.829714 96.731429-96.329143zM823.222857 732.964571a15857.956571 15857.956571 0 0 1 118.564572-118.601142c18.944-18.834286 19.163429-36.571429 0.914285-56.685715-34.486857-37.924571-34.304-52.224 0.731429-92.123428 15.725714-17.883429 17.773714-34.011429 0.292571-51.456-41.764571-41.618286-83.382857-83.456-125.074285-125.184-6.729143-6.692571-13.970286-12.361143-26.221715-13.824-3.657143 1.462857-10.678857 2.340571-14.738285 6.217143-32.804571 31.634286-65.645714 63.158857-97.060572 96.109714-13.897143 14.628571 0.219429 16.64 11.227429 16.786286 29.988571 0.402286 60.086857 1.097143 90.038857-0.036572 21.942857-0.841143 28.891429 8.265143 28.525714 29.366857a5579.117714 5579.117714 0 0 0 0 177.005715c0.365714 21.942857-8.850286 29.44-29.622857 28.818285-27.904-0.841143-55.881143-0.292571-83.821714 0-6.948571 0.073143-15.835429-2.377143-19.748572 5.339429-4.278857 8.484571 4.571429 12.8 9.216 17.554286 26.843429 27.282286 54.491429 53.833143 81.042286 81.444571 19.419429 20.187429 36.973714 18.285714 55.771429-0.731429zM289.865143 767.268571c-19.675429 19.382857-17.700571 37.339429 1.426286 56.137143a6183.021714 6183.021714 0 0 1 118.637714 118.857143c20.626286 21.394286 37.668571 19.017143 57.929143-0.731428 34.925714-34.011429 51.382857-34.011429 86.381714 0.219428 20.406857 19.931429 38.290286 21.906286 58.624 1.389714 40.118857-40.484571 80.603429-80.64 120.868571-121.014857 7.387429-7.424 13.714286-15.616 14.153143-29.147428-1.536-3.657143-2.450286-10.715429-6.4-14.774857-31.012571-32-61.878857-64.182857-94.354285-94.683429-14.884571-14.006857-16.457143 0.914286-16.676572 11.593143-0.512 27.940571-1.060571 55.954286-0.036571 83.931428 0.731429 20.845714-6.4 30.171429-28.416 29.878858a7578.075429 7578.075429 0 0 0-183.478857-0.073143c-19.675429 0.182857-28.342857-6.948571-27.648-27.318857 1.024-27.940571 0.438857-55.954286 0-83.931429-0.073143-6.656 2.816-16.493714-6.619429-18.176-4.425143-0.804571-10.971429 4.717714-15.104 8.777143-26.660571 26.185143-52.736 52.809143-79.286857 79.030857zM630.381714 333.714286c0.219429 16.384 7.314286 18.432 18.395429 7.424 30.098286-29.952 60.233143-59.867429 89.636571-90.514286 13.824-14.409143 12.214857-29.696-1.938285-43.812571-42.532571-42.422857-85.065143-84.845714-127.414858-127.451429-16.274286-16.384-31.414857-15.616-48.713142-0.475429-43.154286 37.851429-53.723429 37.814857-96.548572 0.109715-16.749714-14.738286-32.512-17.664-49.005714-1.243429A25775.798857 25775.798857 0 0 0 287.305143 205.165714c-16.164571 16.274286-15.213714 32.768 0.914286 48.822857 26.368 26.331429 52.553143 52.882286 79.067428 79.140572 4.900571 4.827429 9.508571 12.982857 17.554286 10.313143 8.886857-2.925714 5.851429-12.324571 5.997714-19.017143 0.438857-24.868571 2.048-49.883429-0.256-74.532572-2.742857-29.842286 9.947429-38.180571 37.595429-36.278857 26.806857 1.901714 53.833143 0.438857 80.749714 0.438857h77.677714c43.483429 0.073143 43.483429 0.073143 43.52 45.056 0.073143 24.868571-0.073143 49.737143 0.219429 74.569143z"
          p-id="8900" fill="#d81e06"></path>
    <path d="M248.576 228.937143c13.348571 2.925714 8.411429-10.971429 12.507429-16.822857 4.754286-6.692571 8.923429-14.043429 14.628571-19.821715C317.257143 150.308571 358.765714 108.251429 401.042286 67.035429c26.770286-26.075429 47.323429-25.234286 75.593143 0.548571 32.292571 29.44 36.644571 29.732571 68.973714-0.548571 19.382857-18.139429 41.947429-29.184 63.634286-10.24 53.76 46.957714 104.886857 96.914286 150.966857 151.661714 5.12 6.070857 2.816 22.491429 16.822857 16.457143a16.164571 16.164571 0 0 0 1.828571-0.914286c8.411429-4.937143 9.435429-16.274286 9.508572-26.331429 0.365714-12.690286-4.644571-23.04-12.470857-32a77.970286 77.970286 0 0 0-3.547429-3.803428c-47.579429-47.652571-94.756571-95.744-143.067429-142.665143-25.6-24.868571-47.323429-24.027429-73.764571-0.585143-44.726857 39.643429-44.726857 39.643429-88.393143 0.731429-26.953143-23.990857-48.420571-25.344-73.728-0.804572C345.014857 65.389714 297.801143 113.481143 250.368 161.28c-13.056 13.165714-20.626286 28.745143-15.104 47.872 2.267429 7.899429 4.754286 17.846857 13.312 19.748571zM206.628571 761.014857c-4.717714-4.022857-10.569143-6.802286-14.921142-11.117714-42.642286-42.349714-85.613714-84.406857-127.414858-127.597714-23.149714-23.917714-21.869714-48.786286 0.804572-74.459429 31.085714-35.108571 31.524571-37.046857-0.073143-71.241143-17.554286-19.017143-26.587429-42.532571-9.142857-61.366857C106.24 360.630857 155.465143 304.384 215.661714 259.657143c3.876571-2.852571 11.117714-2.486857 10.971429-8.886857-0.109714-7.314286-6.692571-10.313143-12.470857-12.251429-22.089143-7.314286-40.667429-0.548571-56.576 15.36C111.396571 299.958857 64.841143 345.782857 19.163429 392.411429c-24.758857 25.270857-24.064 49.883429 0 76.763428 36.937143 41.398857 36.937143 43.154286-0.804572 86.674286-23.588571 27.172571-23.332571 50.395429 2.377143 76.507428 45.824 46.518857 92.269714 92.379429 138.349714 138.642286 10.569143 10.605714 22.235429 18.578286 39.936 19.638857 8.704-2.669714 23.186286-2.779429 26.550857-14.774857 3.913143-13.750857-12.653714-9.508571-18.980571-14.884571zM1004.909714 467.126857c19.273143-21.357714 25.746286-44.763429 4.973715-66.486857a4251.648 4251.648 0 0 0-154.075429-153.6c-18.907429-17.810286-42.422857-17.481143-64.914286 6.802286 17.92 5.083429 31.451429 11.776 42.569143 23.04 40.009143 40.594286 80.822857 80.384 120.649143 121.161143 26.477714 27.062857 26.258286 53.76 1.097143 82.139428-27.684571 31.268571-27.648 35.328 0.914286 66.889143 24.502857 27.099429 24.210286 52.077714-1.792 78.921143-20.882286 21.577143-41.435429 43.702857-63.890286 63.561143-29.878857 26.404571-50.578286 63.268571-90.989714 77.970285-11.702857 4.242286-2.816 11.958857 3.181714 15.616 22.454857 13.714286 41.472 6.4 58.514286-10.678857 47.652571-47.616 95.634286-94.902857 142.774857-142.994285 24.576-25.088 23.917714-46.701714 0-73.362286-38.692571-43.008-38.912-44.726857 0.987428-88.978286zM776.850286 798.646857c-3.803429-3.108571-7.277714-0.804571-9.764572 3.364572-37.010286 61.147429-95.232 102.656-143.067428 153.746285-26.624 28.452571-48.786286 27.209143-78.189715 1.316572-33.536-29.476571-34.523429-29.513143-66.230857-1.389715-31.780571 28.16-53.540571 28.233143-83.565714-1.243428a11235.657143 11235.657143 0 0 1-116.297143-116.370286c-6.436571-6.546286-11.446857-14.555429-17.188571-21.833143-5.083429-6.436571-0.987429-22.418286-14.957715-18.834285-10.752 2.779429-12.982857 15.36-13.824 25.782857-1.389714 16.822857 7.131429 29.622857 18.541715 40.96 46.884571 46.811429 93.366857 93.988571 140.617143 140.361143 25.234286 24.795429 47.579429 24.502857 73.289142 1.097142 41.398857-37.668571 49.188571-37.668571 89.892572-0.365714 26.185143 24.027429 47.250286 24.356571 72.923428-0.914286 48.018286-47.140571 95.232-95.012571 142.811429-142.555428 9.874286-9.801143 17.188571-20.699429 16.457143-35.437714-0.438857-10.605714-2.779429-20.662857-11.446857-27.684572z"
          p-id="8901" fill="#d81e06"></path>
</svg>