<?xml version="1.0" standalone="no"?><!DOCTYPE svg PUBLIC "-//W3C//DTD SVG 1.1//EN"
        "http://www.w3.org/Graphics/SVG/1.1/DTD/svg11.dtd">
<svg t="1597722257941" class="icon" viewBox="0 0 1024 1024" version="1.1" xmlns="http://www.w3.org/2000/svg"
     p-id="14110" width="450" height="450">
    <defs>
        <style type="text/css"></style>
    </defs>
    <path d="M692.778 968.963c-12.114 13.27-26.423 22.601-44.612 24.329-39.673 3.775-79.05 0.992-117.983-7.116-68.502-14.264-128.18-45.715-179.072-93.658-16.324-15.378-32.3-31.233-43.937-50.681-20.878-34.899-22.399-73.206-16.581-111.727 4.935-32.651 13.133-64.809 19.862-97.188 3.962-19.055 9.105-37.688 7.728-57.763-1.892-27.586-2.301-55.348-1.717-83.001 0.438-20.722 5.071-40.996 16.749-58.742 2.626-3.991 6.726-7.46 10.888-9.917 17.755-10.475 36.365-19.594 53.594-30.843 32.813-21.428 60.523-47.992 77.673-84.102 0.091-0.193 0.78-0.102 1.442-0.169 0.648 12.059 4.533 23.04 10.604 33.418 1.066 1.822 0.703 4.932 0.1 7.209-3.541 13.306-8.145 26.378-10.905 39.833-6.59 32.135 0.282 60.817 23.111 85.348 15.684 16.854 33.348 31.107 52.222 44.153 21.661 14.974 42.873 30.601 64.329 45.873 7.209 5.129 9.457 12.202 9.117 20.682-0.585 14.623-7.918 26.37-16.172 37.531-7.55 10.212-15.917 19.819-24.141 29.961 1.65 0.995 3.077 1.985 4.613 2.764 32.202 16.328 60.024 38.121 82.505 66.473 24.186 30.508 39.539 64.856 42.437 103.921 3.62 48.731-12.451 91.141-43.506 128.264-5.005 5.983-10.386 11.654-15.591 17.472 27.981-11.692 53.896-26.42 75.145-48.345 35.015-36.13 45.665-78.553 31.663-126.725-13.635-46.903-43.118-82.867-80.594-112.881-18.028-14.444-37.939-25.758-60.461-34.015 13.256-8.637 21.489-20.41 26.832-34.082 11.994-30.705 7.426-55.028-20.73-74.369-5.6-3.848-11.293-7.706-17.375-10.677-13.19-6.438-26.543-12.58-40.047-18.35-19.393-8.283-38.556-16.852-55.834-29.227-16.017-11.471-26.815-25.751-27.55-46.229-0.779-21.625 2.819-42.417 11.969-62.08 1.982-4.26 4.969-8.05 7.487-12.048 28.504 19.345 56.887 17.835 84.458 1.374 29.924-17.866 48.051-44.349 52.063-79.598 2.138 0.103 4.235 0.201 7.067 0.335-1.877-3.02-3.345-5.389-4.898-7.894 10.64-12.693 19.097-26.413 24.281-42.03 5.202-15.662 7.502-31.637 5.786-48.405 2.53 3.471 5.394 7.099 5.535 10.831 0.405 10.659 0.529 21.458-0.736 32.023-2.472 20.627 4.741 35.731 21.71 41.908-1.829-2.143-3.386-3.878-4.847-5.692-8.007-9.958-9.85-20.797-4.542-32.608 2.428-5.393 4.868-10.781 7.381-16.135 6.976-14.848 4.305-28.173-6.436-40.12-3.19-3.547-6.766-6.75-10.481-10.422 14.185-10.87 18.99-25.39 17.495-41.701-2.685-29.333-15.924-53.647-38.235-72.694-12.779-10.907-27.473-17.597-44.871-13.537-3.916 0.915-5.745-0.508-8.454-2.651-9.086-7.196-17.818-15.315-27.977-20.604-34.92-18.185-71.328-16.873-107.279-3.789-61.632 22.432-103.433 66.342-130.535 124.992-21.437 46.387-27.491 95.37-22.552 145.921 0.476 4.884-0.789 8.468-3.746 12.558-8.455 11.708-17.194 23.445-23.788 36.219-21.063 40.817-30.597 84.681-32.092 130.447-1.213 37.048 3.577 73.091 17.434 107.682 0.323 0.81 0.591 1.648 0.997 2.415 0.284 0.54 0.756 0.979 1.736 2.197-9.708-47.695-10.901-83.969-5.236-123.473 4.586-31.98 13.745-62.503 31.456-89.831 5.982-9.234 13.497-17.475 20.892-26.911l18.643 57.01c0.52-0.158 1.039-0.316 1.558-0.477-0.543-8.538-1.14-17.074-1.625-25.615-3.536-62.344 5.487-122.624 30.953-179.888 19.62-44.125 47.167-82.315 87.825-109.625 27.909-18.745 58.287-29.719 92.535-24.704 9.794 1.436 19.293 4.85 28.929 7.355-0.096 0.734-0.192 1.467-0.285 2.201-41.996 13.541-79.193 33.615-101.622 73.79 31.717-32.808 70.799-51.708 114.865-61.704 11.929-2.706 22.263-0.33 31.766 6.381 19.526 13.794 30.975 32.856 36.465 56.04 3.173 13.388 0.859 24.195-10.668 32.397-4.473 3.179-8.639 6.823-13.287 9.705-21.063 13.064-44.451 20.588-67.846 28.074-35.671 11.411-71.613 22.052-106.896 34.552-28.328 10.035-54.451 24.583-75.254 47.09-12.978 14.04-21.586 30.368-26.093 50.372 21.277-33.017 55.415-43.297 87.452-56.891l1.322 1.26c-2.556 6.486-4.839 13.096-7.713 19.438-24.197 53.368-63.486 92.864-113.88 121.473-23.943 13.592-39.635 32.611-46.753 59.076-6.976 25.933-5.396 52.259-4.218 78.608 0.818 18.332 2.912 36.394-2.654 54.827-17.664 58.482-29.373 118.027-24.244 179.6 2.649 31.813 9.791 62.147 35.551 84.45 1.475 1.277 2.562 3.007 3.823 4.527 41.79 50.365 92.853 88.033 153.712 112.303 57.704 23.01 117.739 30.922 179.468 27.571 38.02-2.061 67.52-18.081 86.548-52.187 11.008-19.723 23.315-38.72 35.101-58.007 1.863-3.056 4.057-5.914 6.099-8.864-5.703 3.631-10.746 7.765-15.171 12.484a5570.574 5570.574 0 0 0-49.254 53.275zM481.465 291.676c0.584-2.774 2.245-5.5 2.159-8.206-0.4-12.65 6.989-16.877 17.977-20.307 35.316-11.028 70.514-22.625 103.644-39.443 21.906-11.121 42.323-24.266 56.772-44.896 0.31-0.442 1.004-0.613 2.737-1.61-1.813 22.08-7.368 42.001-16.437 60.89-3.59 7.478-7.76 14.795-12.614 21.501-2.888 3.987-9.182 5.941-11.045 10.106-1.612 3.604 2.021 9.215 1.341 13.633-2.668 17.316-11.823 31.465-23.787 43.813-14.635 15.106-31.415 26.65-52.768 30.132-18.746 3.057-34.106-3.623-46.962-16.718-11.333-11.548-18.116-25.734-21.892-41.333-0.562-2.321 0.349-5.072 0.875-7.562z"
          fill="#2c2c2c" p-id="14111"></path>
    <path d="M345.072 828.369c16.289-0.717 30.813 4.665 44.462 12.53 8.54 4.924 17.051 10.127 24.746 16.246 25.615 20.379 50.632 41.509 76.299 61.819 26.265 20.781 53.984 39.222 86.698 48.599 12.837 3.681 25.894 5.64 39.288 4.491-20.823-3.72-39.268-12.713-56.636-24.176-31.17-20.576-57.198-47.228-84.866-71.961-27.779-24.835-54.737-51.232-94.238-57.73 0.22-2.404 0.131-4.636 0.66-6.709 5.21-20.378 9.459-41.08 16.019-61.02 15.761-47.903 33.313-95.22 48.792-143.21 10.533-32.653 17.578-66.156 15.173-101.019-2.207-32.008-21.183-54.579-51.601-60.169 4.363 4.164 9.159 7.966 13.009 12.561 11.696 13.952 15.309 30.812 16.014 48.43 1.021 25.472-3.18 50.426-9.966 74.754-12.111 43.396-25.406 86.46-38.007 129.72-7.793 26.758-14.966 53.695-15.444 81.824-0.141 8.22 0.653 16.455 1.018 24.647-24.515 4.42-27.007 5.235-31.42 10.373zM562.227 263.143c10.847 7.035 22.92 10.064 36.17 10.633-1.675-3.822-3.063-6.996-4.328-9.879-11.624-1.719-24.113-1.153-30.153-14.929-9.672 4.298-7.863 10.169-1.689 14.175z"
          fill="#2c2c2c" p-id="14112"></path>
</svg>